<?xml version="1.0" encoding="UTF-8"?>
<svg xmlns="http://www.w3.org/2000/svg" xmlns:xlink="http://www.w3.org/1999/xlink" width="48pt" height="48pt" viewBox="0 0 48 48" version="1.2">
<defs>
<clipPath id="clip1">
  <path d="M 0.488281 13.339844 L 47.429688 13.339844 L 47.429688 43.464844 L 0.488281 43.464844 Z M 0.488281 13.339844 "/>
</clipPath>
</defs>
<g id="surface1">
<g clip-path="url(#clip1)" clip-rule="nonzero">
<path style=" stroke:none;fill-rule:nonzero;fill:rgb(49.409485%,85.099792%,34.118652%);fill-opacity:1;" d="M -0.773438 39.300781 L 6.011719 35.085938 L 7.601562 37.738281 L 20.140625 27.734375 L 23.476562 31.84375 L 38.71875 18.550781 L 36.019531 15.160156 L 47.132812 13.589844 L 44.195312 24.75 L 41.207031 22.089844 L 23.179688 37.441406 L 19.890625 33.039062 L 7.082031 43.203125 L 4.910156 39.621094 L -0.773438 43.203125 L -0.773438 39.300781 "/>
<path style=" stroke:none;fill-rule:nonzero;fill:rgb(0%,50.19989%,21.569824%);fill-opacity:1;" d="M -0.773438 39.300781 L -0.644531 39.507812 L 5.925781 35.425781 L 7.386719 37.863281 C 7.425781 37.925781 7.484375 37.96875 7.554688 37.980469 C 7.625 37.992188 7.699219 37.976562 7.753906 37.929688 L 20.105469 28.078125 L 23.285156 32 C 23.328125 32.050781 23.386719 32.082031 23.453125 32.089844 C 23.519531 32.09375 23.589844 32.074219 23.640625 32.027344 L 38.882812 18.734375 C 38.980469 18.648438 38.996094 18.5 38.914062 18.398438 L 36.480469 15.34375 L 46.800781 13.882812 L 44.058594 24.300781 L 41.371094 21.910156 C 41.28125 21.828125 41.140625 21.824219 41.046875 21.90625 L 23.21875 37.082031 L 20.089844 32.890625 C 20.050781 32.839844 19.992188 32.804688 19.925781 32.792969 C 19.859375 32.785156 19.789062 32.804688 19.738281 32.847656 L 7.148438 42.835938 L 5.121094 39.496094 C 5.085938 39.4375 5.03125 39.398438 4.964844 39.382812 C 4.902344 39.367188 4.832031 39.378906 4.777344 39.414062 L -0.527344 42.757812 L -0.527344 39.300781 L -0.773438 39.300781 L -0.644531 39.507812 L -0.773438 39.300781 L -1.019531 39.300781 L -1.019531 43.203125 C -1.019531 43.292969 -0.972656 43.375 -0.894531 43.417969 C -0.8125 43.460938 -0.71875 43.457031 -0.640625 43.410156 L 4.828125 39.960938 L 6.871094 43.328125 C 6.90625 43.390625 6.96875 43.429688 7.039062 43.445312 C 7.109375 43.457031 7.179688 43.4375 7.234375 43.394531 L 19.847656 33.386719 L 22.980469 37.585938 C 23.023438 37.640625 23.082031 37.675781 23.152344 37.683594 C 23.222656 37.691406 23.289062 37.671875 23.339844 37.628906 L 41.203125 22.417969 L 44.03125 24.933594 C 44.097656 24.988281 44.1875 25.007812 44.269531 24.984375 C 44.351562 24.960938 44.414062 24.894531 44.433594 24.8125 L 47.371094 13.652344 C 47.394531 13.570312 47.375 13.488281 47.320312 13.425781 C 47.261719 13.363281 47.179688 13.335938 47.101562 13.347656 L 35.984375 14.917969 C 35.898438 14.929688 35.824219 14.988281 35.789062 15.070312 C 35.757812 15.148438 35.773438 15.242188 35.828125 15.3125 L 38.378906 18.519531 L 23.507812 31.492188 L 20.332031 27.578125 C 20.25 27.472656 20.09375 27.457031 19.988281 27.542969 L 7.667969 37.371094 L 6.222656 34.960938 C 6.1875 34.902344 6.132812 34.863281 6.066406 34.847656 C 6.003906 34.832031 5.933594 34.84375 5.878906 34.875 L -0.90625 39.09375 C -0.976562 39.136719 -1.019531 39.214844 -1.019531 39.300781 L -0.773438 39.300781 "/>
</g>
</g>
</svg>
